<svg width="24" height="24" viewBox="0 0 24 24" fill="none" xmlns="http://www.w3.org/2000/svg">
<path d="M4.99934 7.0255C5.31483 6.92827 5.66339 7.0398 5.86229 7.31329C6.08329 7.61716 6.05714 8.03521 5.8 8.30918L5.09565 8.83092C4.76191 9.1082 4.56776 9.51878 4.56522 9.95266V17.9092C4.57474 19.2053 5.62562 20.2523 6.92174 20.257H10.9217V20.2744C11.354 20.2744 11.7043 20.6248 11.7043 21.057C11.7043 21.4892 11.354 21.8396 10.9217 21.8396H6.92174C4.75781 21.8348 3.00478 20.0818 3 17.9179V9.95266C3.01384 9.03224 3.44588 8.16816 4.17391 7.60484L4.89565 7.06571L4.99934 7.0255ZM10.1217 2.79614C11.4421 1.73478 13.3231 1.73478 14.6435 2.79614L20.6522 7.58744C21.3642 8.16009 21.7822 9.02161 21.7913 9.93527L21.7826 17.9092C21.7826 20.0751 20.0268 21.8309 17.8609 21.8309H16.1217C15.0734 21.8309 14.2222 20.9836 14.2174 19.9353V16.3353L14.2093 16.2446C14.1666 16.0093 13.9606 15.8309 13.713 15.8309H11.1043C10.9691 15.8309 10.8394 15.8852 10.7446 15.9817C10.6498 16.0782 10.5977 16.2087 10.6 16.344V17.7179C10.6 18.1501 10.2496 18.5005 9.81739 18.5005C9.38517 18.5005 9.03478 18.1501 9.03478 17.7179V16.344C9.03478 15.7928 9.25374 15.2642 9.64349 14.8744C10.0332 14.4847 10.5619 14.2657 11.113 14.2657H13.7217C14.8661 14.2705 15.7913 15.1996 15.7913 16.344V19.9353C15.7913 20.1178 15.9392 20.2657 16.1217 20.2657H17.9043C19.201 20.2657 20.2522 19.2145 20.2522 17.9179V9.95266C20.2458 9.5114 20.0415 9.09636 19.6957 8.82223L13.687 4.03092C12.9293 3.40713 11.836 3.40713 11.0783 4.03092L9.14783 5.4744C8.79004 5.73133 8.29171 5.64958 8.03478 5.29179C7.77785 4.93401 7.85961 4.43568 8.21739 4.17875L10.1217 2.79614Z" fill="black"/>
</svg>
